<svg width="62" height="45" viewBox="0 0 62 45" fill="none" xmlns="http://www.w3.org/2000/svg">
<path d="M2 42L62 42.0018" stroke="#61DAFB" stroke-width="5"/>
<path d="M3.116 36C2.83733 36 2.59667 35.8987 2.394 35.696C2.19133 35.4933 2.09 35.2527 2.09 34.974V10.426C2.09 10.1473 2.19133 9.90667 2.394 9.704C2.59667 9.50133 2.83733 9.4 3.116 9.4H9.12C9.62667 9.4 10.0067 9.53933 10.26 9.818C10.5133 10.0967 10.678 10.2993 10.754 10.426L16.264 19.546L21.774 10.426C21.85 10.2993 22.0147 10.0967 22.268 9.818C22.5213 9.53933 22.9013 9.4 23.408 9.4H29.412C29.6907 9.4 29.9313 9.50133 30.134 9.704C30.3367 9.90667 30.438 10.1473 30.438 10.426V34.974C30.438 35.2527 30.3367 35.4933 30.134 35.696C29.9313 35.8987 29.6907 36 29.412 36H22.534C22.2553 36 22.0147 35.8987 21.812 35.696C21.6093 35.4933 21.508 35.2527 21.508 34.974V24.562L19 28.666C18.8733 28.8687 18.696 29.084 18.468 29.312C18.2653 29.5147 17.974 29.616 17.594 29.616H14.934C14.554 29.616 14.25 29.5147 14.022 29.312C13.8193 29.084 13.6547 28.8687 13.528 28.666L11.02 24.562V34.974C11.02 35.2527 10.9187 35.4933 10.716 35.696C10.5133 35.8987 10.2727 36 9.994 36H3.116ZM33.3809 36C33.1529 36 32.9503 35.924 32.7729 35.772C32.6209 35.5947 32.5449 35.392 32.5449 35.164C32.5449 35.0627 32.5576 34.974 32.5829 34.898L41.0569 10.654C41.1329 10.3753 41.3103 10.0967 41.5889 9.818C41.8676 9.53933 42.2603 9.4 42.7669 9.4H51.0129C51.5196 9.4 51.9123 9.53933 52.1909 9.818C52.4696 10.0967 52.6469 10.3753 52.7229 10.654L61.1969 34.898C61.2223 34.974 61.2349 35.0627 61.2349 35.164C61.2349 35.392 61.1463 35.5947 60.9689 35.772C60.8169 35.924 60.6269 36 60.3989 36H53.3689C52.8876 36 52.5329 35.8987 52.3049 35.696C52.1023 35.468 51.9629 35.2527 51.8869 35.05L50.9749 32.542H42.8049L41.8929 35.05C41.8169 35.2527 41.6776 35.468 41.4749 35.696C41.2723 35.8987 40.9176 36 40.4109 36H33.3809ZM44.7429 25.132H49.0369L46.8709 18.064L44.7429 25.132Z" fill="white"/>
</svg>
